<?xml version="1.0" encoding="UTF-8"?>
<svg width="36px" height="48px" viewBox="0 0 36 48" version="1.1" xmlns="http://www.w3.org/2000/svg">
  <g id="Map-Marker" stroke="none" stroke-width="1" fill="none" fill-rule="evenodd">
    <path d="M18,0 C27.9411255,0 36,8.0588745 36,18 C36,24.9006986 32.6088397,31.0022846 27.3357778,34.4953864 L18,48 L8.6642222,34.4953864 C3.39116026,31.0022846 0,24.9006986 0,18 C0,8.0588745 8.0588745,0 18,0 Z" id="Pin-Shape" fill="#16a34a"></path>
    <circle id="Inner-Circle" fill="#fef08a" cx="18" cy="18" r="10"></circle>
    <path d="M14,13 L14,23 L16,23 L16,19 L20,19 L20,23 L22,23 L22,13 L20,13 L20,17 L16,17 L16,13 L14,13 Z" id="H-Letter" fill="#16a34a" fill-rule="nonzero"></path>
  </g>
</svg>